<svg version="1.1" viewBox="0.0 0.0 605.2493438320209 113.42782152230971" fill="none" stroke="none" stroke-linecap="square" stroke-miterlimit="10" xmlns:xlink="http://www.w3.org/1999/xlink" xmlns="http://www.w3.org/2000/svg"><clipPath id="p.0"><path d="m0 0l605.2493 0l0 113.42782l-605.2493 0l0 -113.42782z" clip-rule="nonzero"/></clipPath><g clip-path="url(#p.0)"><path fill="#000000" fill-opacity="0.0" d="m0 0l605.2493 0l0 113.42782l-605.2493 0z" fill-rule="evenodd"/><path fill="#000000" fill-opacity="0.0" d="m-5.6430445 0l621.92126 0l0 113.41732l-621.92126 0z" fill-rule="evenodd"/><path fill="#4a86e8" d="m12.310081 19.281868l23.125 0q10.140625 0 17.609375 2.1875q7.46875 2.171875 12.359375 6.234375q4.90625 4.046875 7.3125 9.84375q2.40625 5.78125 2.40625 13.015625q0 6.859375 -2.390625 12.6875q-2.375 5.828125 -7.265625 10.09375q-4.875 4.25 -12.34375 6.65625q-7.46875 2.40625 -17.59375 2.40625l-23.21875 -0.046875l0 -63.078125zm26.28125 52.015625q5.734375 0 10.046875 -1.46875q4.328125 -1.46875 7.203125 -4.171875q2.890625 -2.703125 4.34375 -6.53125q1.453125 -3.84375 1.453125 -8.5625q0 -4.640625 -1.453125 -8.375q-1.453125 -3.734375 -4.34375 -6.34375q-2.875 -2.609375 -7.203125 -4.015625q-4.3125 -1.40625 -10.046875 -1.40625l-13.484377 0l0 40.875l13.484377 0zm70.86807 -52.015625l13.5625 0l30.515617 63.078125l-13.4375 0l-5.046875 -10.609375l-36.843742 0l-4.890625 10.609375l-13.484375 0l29.625 -63.078125zm20.546867 41.9375l-13.640617 -28.65625l-13.28125 28.65625l26.921867 0zm52.67279 5.515625l-27.578125 -47.453125l14.5 0l19.40625 35.875l19.171875 -35.875l14.484375 0l-27.1875 47.375l0 15.703125l-12.796875 0l0 -15.625z" fill-rule="nonzero"/><path fill="#93c47d" d="m253.86568 19.281868l13.562515 0l30.515625 63.078125l-13.4375 0l-5.046875 -10.609375l-36.843765 0l-4.890625 10.609375l-13.484375 0l29.625 -63.078125zm20.54689 41.9375l-13.640625 -28.65625l-13.281265 28.65625l26.92189 0zm33.29779 -41.9375l12.796875 0l0 16.46875l39.21875 0l0 -16.46875l12.84375 0l0 63.078125l-12.84375 0l0 -35.671875l-39.21875 0l0 35.671875l-12.796875 0l0 -63.078125zm82.76822 0l53.71875 0l0 11.21875l-40.921875 0l0 12.59375l36.25 0l0 10.53125l-36.25 0l0 17.5625l41.78125 0l0 11.171875l-54.578125 0l0 -63.078125zm90.28821 0l13.5625 0l30.515564 63.078125l-13.4374695 0l-5.046875 -10.609375l-36.84372 0l-4.890625 10.609375l-13.484375 0l29.625 -63.078125zm20.546875 41.9375l-13.640625 -28.65625l-13.28125 28.65625l26.921875 0zm33.32904 -41.9375l23.125 0q10.140625 0 17.609375 2.1875q7.46875 2.171875 12.359375 6.234375q4.90625 4.046875 7.3125 9.84375q2.40625 5.78125 2.40625 13.015625q0 6.859375 -2.390625 12.6875q-2.375 5.828125 -7.265625 10.09375q-4.875 4.25 -12.34375 6.65625q-7.46875 2.40625 -17.59375 2.40625l-23.21875 -0.046875l0 -63.078125zm26.28125 52.015625q5.734375 0 10.046875 -1.46875q4.328125 -1.46875 7.203125 -4.171875q2.890625 -2.703125 4.34375 -6.53125q1.453125 -3.84375 1.453125 -8.5625q0 -4.640625 -1.453125 -8.375q-1.453125 -3.734375 -4.34375 -6.34375q-2.875 -2.609375 -7.203125 -4.015625q-4.3125 -1.40625 -10.046875 -1.40625l-13.484375 0l0 40.875l13.484375 0z" fill-rule="nonzero"/><path fill="#000000" fill-opacity="0.0" d="m370.10294 84.75618l78.456696 0l0 42.015747l-78.456696 0z" fill-rule="evenodd"/><path fill="#000000" fill-opacity="0.0" d="m598.3412 95.94751l-585.7952 -0.62992096" fill-rule="evenodd"/><path stroke="#93c47d" stroke-width="4.0" stroke-linejoin="round" stroke-linecap="butt" d="m583.1812 95.931206l-546.6353 -0.58781433" fill-rule="evenodd"/><path fill="#93c47d" stroke="#93c47d" stroke-width="4.0" stroke-linecap="butt" d="m583.1883 89.35121l13.159973 0.014144897l-0.014160156 13.159996l-13.159973 -0.014152527l0.014160156 -13.159988z" fill-rule="nonzero"/><path fill="#93c47d" stroke="#93c47d" stroke-width="4.0" stroke-linecap="butt" d="m36.55302 88.736465l-18.159483 6.58741l18.145273 6.626442z" fill-rule="evenodd"/></g></svg>